<svg xmlns="http://www.w3.org/2000/svg" width="17.442" height="22.074" viewBox="0 0 17.442 22.074">
  <g id="Profile" transform="translate(-153 -238.887)">
    <path id="Path_919" data-name="Path 919" d="M166.364,415.311a6.681,6.681,0,0,1-1.019,1.036,7.312,7.312,0,0,1,3.683,6.343c0,1.465-3.21,2.612-7.307,2.612s-7.307-1.147-7.307-2.612a7.312,7.312,0,0,1,3.683-6.343,6.672,6.672,0,0,1-1.019-1.036A8.722,8.722,0,0,0,153,422.69c0,.94.515,2.25,2.967,3.153a19.388,19.388,0,0,0,11.508,0c2.453-.9,2.967-2.213,2.967-3.153a8.723,8.723,0,0,0-4.078-7.379Zm0,0" transform="translate(0 -165.756)" fill="#fff"/>
    <path id="Path_920" data-name="Path 920" d="M221.654,250.487c2.748,0,4.865-2.657,4.865-5.8s-2.117-5.8-4.865-5.8-4.865,2.657-4.865,5.8S218.906,250.487,221.654,250.487Zm0-10.183c1.9,0,3.451,1.967,3.451,4.384s-1.548,4.384-3.451,4.384-3.451-1.967-3.451-4.384S219.751,240.3,221.654,240.3Zm0,0" transform="translate(-59.933)" fill="#fff"/>
  </g>
</svg>
