<svg xmlns="http://www.w3.org/2000/svg" width="24.001" height="21.204" viewBox="0 0 24.001 21.204">
  <path id="Heart" d="M17.625,29.836A6.092,6.092,0,0,0,12.6,32.613a9.2,9.2,0,0,0-.6.969,9.194,9.194,0,0,0-.6-.969,6.045,6.045,0,0,0-9.652-.694A7.275,7.275,0,0,0,0,36.751,8.909,8.909,0,0,0,2.454,42.6,54.625,54.625,0,0,0,8.6,48.337c.929.791,1.889,1.61,2.912,2.5l.031.027a.7.7,0,0,0,.926,0l.031-.027c1.022-.9,1.983-1.713,2.912-2.5A54.617,54.617,0,0,0,21.546,42.6,8.909,8.909,0,0,0,24,36.751a7.275,7.275,0,0,0-1.751-4.832,6.081,6.081,0,0,0-4.624-2.083ZM14.493,47.263c-.8.682-1.625,1.384-2.493,2.14-.869-.755-1.693-1.457-2.494-2.14-4.878-4.157-8.1-6.9-8.1-10.512a5.871,5.871,0,0,1,1.4-3.9,4.694,4.694,0,0,1,3.569-1.606,4.74,4.74,0,0,1,3.88,2.184,8.336,8.336,0,0,1,1.076,2.14.7.7,0,0,0,1.337,0,8.337,8.337,0,0,1,1.076-2.14,4.641,4.641,0,0,1,7.449-.578,5.871,5.871,0,0,1,1.4,3.9C22.594,40.36,19.371,43.106,14.493,47.263Z" transform="translate(0.001 -29.835)" fill="#fff"/>
</svg>
