<svg xmlns="http://www.w3.org/2000/svg" width="55.92" height="55.921" viewBox="0 0 55.92 55.921">
  <g id="wallet" transform="translate(-0.003)">
    <g id="Group_337" data-name="Group 337" transform="translate(0.003 0)">
      <g id="Group_336" data-name="Group 336" transform="translate(0)">
        <path id="Path_925" data-name="Path 925" d="M53.381,28.2v-7.86A5.073,5.073,0,0,0,48.7,15.293L41.4,2.544A5.03,5.03,0,0,0,34.5.685L9.481,15.252H5.087A5.089,5.089,0,0,0,0,20.336v30.5a5.089,5.089,0,0,0,5.084,5.084H48.3a5.089,5.089,0,0,0,5.084-5.084v-7.86A3.807,3.807,0,0,0,55.923,39.4V31.774A3.807,3.807,0,0,0,53.381,28.2ZM45.749,15.252H34.671l8.308-4.837ZM41.717,8.209l-12.1,7.043H24.6l15.86-9.234ZM35.782,2.882a2.458,2.458,0,0,1,1.888-.254A2.492,2.492,0,0,1,39.2,3.807l0,0L19.551,15.252H14.533ZM50.839,50.837A2.545,2.545,0,0,1,48.3,53.379H5.087a2.545,2.545,0,0,1-2.542-2.542v-30.5a2.545,2.545,0,0,1,2.542-2.542H48.3a2.545,2.545,0,0,1,2.542,2.542v7.625H43.214a7.625,7.625,0,0,0,0,15.251h7.625ZM53.381,39.4A1.272,1.272,0,0,1,52.11,40.67h-8.9a5.084,5.084,0,0,1,0-10.167h8.9a1.272,1.272,0,0,1,1.271,1.271Z" transform="translate(-0.003 0)" fill="#c3dad4"/>
        <path id="Path_926" data-name="Path 926" d="M343.879,277.341a2.542,2.542,0,1,0,2.542,2.542A2.545,2.545,0,0,0,343.879,277.341Z" transform="translate(-300.668 -244.296)" fill="#c3dad4"/>
      </g>
    </g>
  </g>
</svg>
