<svg xmlns="http://www.w3.org/2000/svg" width="23.235" height="21.316" viewBox="0 0 23.235 21.316">
  <g id="Cart" transform="translate(239.126 -310.209)">
    <path id="Path_1" data-name="Path 1" d="M-216.113,313.4a.5.5,0,0,0-.383-.192H-234.69l-.479-2.49c0-.191-.287-.383-.479-.383h-2.873a.452.452,0,0,0-.347.132.452.452,0,0,0-.132.347.452.452,0,0,0,.132.347.452.452,0,0,0,.347.132h2.49l2.3,11.683a3.374,3.374,0,0,0,3.256,2.681h11.012a.452.452,0,0,0,.347-.132.452.452,0,0,0,.132-.347.452.452,0,0,0-.132-.347.452.452,0,0,0-.347-.132H-230.38a2.208,2.208,0,0,1-1.915-1.053l13.981-1.915a.412.412,0,0,0,.383-.383l1.915-7.661a.473.473,0,0,0-.1-.287Zm-2.681,7.469-13.981,1.819-1.724-8.618h17.333Z" fill="#fff" stroke="#fff" stroke-width="0.25"/>
    <path id="Path_2" data-name="Path 2" d="M-108.606,673a2.371,2.371,0,0,0-1.7.694,2.371,2.371,0,0,0-.694,1.7,2.371,2.371,0,0,0,.694,1.7,2.371,2.371,0,0,0,1.7.694,2.371,2.371,0,0,0,1.7-.694,2.371,2.371,0,0,0,.694-1.7,2.371,2.371,0,0,0-.694-1.7,2.371,2.371,0,0,0-1.7-.694Zm0,3.83a1.473,1.473,0,0,1-1.436-1.436,1.473,1.473,0,0,1,1.436-1.436,1.473,1.473,0,0,1,1.436,1.436,1.473,1.473,0,0,1-1.436,1.436Z" transform="translate(-122.254 -346.388)" fill="#fff" stroke="#fff" stroke-width="0.25"/>
    <path id="Path_3" data-name="Path 3" d="M104.728,673a2.371,2.371,0,1,0,1.7.694,2.394,2.394,0,0,0-1.7-.694Zm0,3.83a1.436,1.436,0,1,1,1.436-1.436,1.473,1.473,0,0,1-1.436,1.436Z" transform="translate(-326.012 -346.388)" fill="#fff" stroke="#fff" stroke-width="0.25"/>
  </g>
</svg>
